Coordinates
version=1
nRows=13
nColumns=36
inDegrees=yes

Units are S.I. units (second, meters, Newtons, ...)
If the header above contains a line with 'inDegrees', this indicates whether rotational values are in degrees (yes) or radians (no).

endheader
time	pelvis_tilt	pelvis_list	pelvis_rotation	pelvis_tx	pelvis_ty	pelvis_tz	hip_flexion_r	hip_adduction_r	hip_rotation_r	knee_angle_r	knee_angle_r_beta	ankle_angle_r	subtalar_angle_r	mtp_angle_r	hip_flexion_l	hip_adduction_l	hip_rotation_l	knee_angle_l	knee_angle_l_beta	ankle_angle_l	subtalar_angle_l	mtp_angle_l	lumbar_extension	lumbar_bending	lumbar_rotation	arm_flex_r	arm_add_r	arm_rot_r	elbow_flex_r	pro_sup_r	arm_flex_l	arm_add_l	arm_rot_l	elbow_flex_l	pro_sup_l
      2.68333330	      1.45477266	      4.62700994	    -22.51414267	      0.87515662	      0.91137713	     -0.30475807	      5.87462095	      4.96698430	      9.18507546	     18.38533127	      0.32088456	      8.86830490	     -9.72372973	     -7.49999983	     55.06923525	     -3.18004741	      2.28698867	     24.60496500	      0.42943765	      1.26741623	      1.45569718	     -7.49999983	    -12.76974903	     -3.31140270	      5.52866381	     61.51088442	      3.01276124	     57.79145819	    121.99432905	     90.32603867	     80.02215298	     14.77246646	     60.46289884	    127.17936312	     85.62323181
      2.70000000	      1.22467597	      4.41695371	    -22.31206403	      0.87533845	      0.90827881	     -0.30549919	      6.42193284	      5.35248482	      9.02557309	     19.03825300	      0.33228020	      9.16254937	    -10.10775850	     -7.49999983	     55.07412513	     -3.24130510	      2.32816053	     24.43326735	      0.42644096	      1.50206464	      1.75360057	     -7.49999983	    -13.34125804	     -3.00087672	      4.22902872	     62.15919987	      3.73771206	     58.65945160	    122.49855090	     89.53199658	     80.86685643	     13.48430524	     60.25783037	    126.00561247	     84.77976680
      2.71666670	      1.19945419	      3.94795424	    -21.96414023	      0.87502936	      0.90614433	     -0.30605748	      6.66390644	      5.86984015	      8.61545221	     19.72646018	      0.34429168	      9.53300688	    -10.41970202	     -7.49999984	     54.55929513	     -3.26797000	      2.58537798	     24.01705741	      0.41917673	      1.73473922	      2.12859775	     -7.49999984	    -13.94005362	     -2.23411933	      3.69658710	     63.03411887	      4.43946917	     59.16240820	    121.81140442	     96.83994130	     81.55360851	     13.45012066	     60.85000176	    126.21479009	     91.29632750
      2.73333330	      0.84943341	      3.68307820	    -21.78333357	      0.87521019	      0.89966032	     -0.30659282	      7.42698044	      6.29239001	      8.04851091	     20.67344539	      0.36081969	     10.36211290	    -10.27663692	     -7.49999984	     54.59316993	     -3.32044206	      2.77436443	     24.00162690	      0.41890742	      1.92351327	      2.42141448	     -7.49999984	    -13.54794155	     -1.73691627	      3.33523668	     62.54650207	      3.47727559	     59.79191400	    122.43542739	     96.11616959	     81.61541130	     13.88655545	     61.59518892	    127.47147579	     90.72759030
      2.75000000	      0.40436646	      3.44710047	    -21.74656312	      0.87510746	      0.89702736	     -0.30708884	      8.37773887	      6.68761802	      7.44490229	     21.94670100	      0.38304219	     11.27986359	    -10.15209209	     -7.49999985	     54.66922520	     -3.46629129	      3.13425288	     24.05075004	      0.41976478	      1.91706156	      2.76646340	     -7.49999985	    -13.32628606	     -1.24370670	      3.13904280	     62.16506933	      3.17514728	     60.33664785	    124.31253126	     95.48634899	     81.63426108	     14.40708344	     61.65832736	    126.11514597	     90.52854381
      2.76666670	     -0.34626914	      3.05068760	    -21.62755752	      0.87124034	      0.89055957	     -0.31237020	     10.10290260	      7.31237957	      6.76808289	     23.72999707	      0.41416658	     12.00066192	    -10.51928619	     -7.49999985	     55.19368385	     -3.64984043	      3.43147762	     24.49116005	      0.42745138	      1.50215693	      3.67207196	     -7.49999985	    -13.29224470	     -0.22006702	      3.29975974	     62.90869904	      2.67478922	     61.25449934	    125.31898289	     95.17893430	     81.98164579	     14.82200054	     61.71963031	    125.52024483	     90.51994930
      2.78333330	     -1.09176998	      2.94832898	    -21.21666907	      0.87142753	      0.88730304	     -0.31196224	     11.77942798	      7.71060041	      6.26446582	     25.24058757	      0.44053136	     12.75169558	    -11.00273207	     -7.49999985	     55.68707881	     -3.35873125	      3.53759464	     24.64447555	      0.43012724	      0.83648937	      4.15371452	     -7.49999985	    -13.13461208	      0.46032080	      3.67859595	     63.33733321	      2.84040728	     61.39108096	    127.71701290	     95.30138441	     81.83184739	     16.15350877	     62.59105544	    129.00520003	     90.81416985
      2.80000000	     -1.87166953	      2.97441940	    -20.85240696	      0.87248927	      0.88692708	     -0.31215784	     13.23983774	      7.96239209	      5.94826906	     26.32420038	      0.45944397	     13.47016151	    -11.26514788	     -7.49999986	     56.02197739	     -3.11065668	      3.52013349	     24.57306875	      0.42888096	      0.37143641	      4.56857029	     -7.49999986	    -12.89408395	      1.00926121	      3.42993180	     62.41461418	      2.01605654	     63.01857413	    127.96860283	     99.10973432	     80.28072833	     16.34366252	     63.51313160	    130.70958906	     95.53803821
      2.81666670	     -2.42933925	      2.80744349	    -20.61286691	      0.87205766	      0.87755486	     -0.31202419	     14.76780320	      8.36357773	      5.47651651	     28.01585534	      0.48896892	     14.29662278	    -11.33272500	     -7.49999986	     56.36588061	     -2.94260313	      3.70734599	     24.64051892	      0.43005818	     -0.00586667	      5.02231818	     -7.49999986	    -13.38118814	      1.81456388	      3.18753130	     62.99031209	      0.61094992	     62.16908111	    126.29857564	     97.70540219	     80.52814105	     16.17238118	     62.82426444	    128.44262798	     94.27923479
      2.83333330	     -3.21046865	      2.53536404	    -20.29078865	      0.87226931	      0.87383836	     -0.31228546	     16.37970152	      8.92269329	      4.93322724	     29.57536937	      0.51618757	     15.07564246	    -11.57650070	     -7.49999986	     57.15118420	     -3.00496938	      3.88084312	     24.98877030	      0.43613632	      0.16811741	      5.55365791	     -7.49999986	    -13.63568592	      2.56128129	      3.74584346	     62.45199577	     -0.43363634	     60.95514268	    126.98149247	     96.52200672	     80.17382420	     16.10648790	     61.43484740	    128.24472965	     93.18132778
      2.85000000	     -3.98950648	      2.44853225	    -19.90214980	      0.87199830	      0.86775825	     -0.31258465	     18.22459371	      9.36274974	      4.48859015	     31.45178765	      0.54893725	     15.92162000	    -11.93024369	     -7.49999986	     57.89224776	     -2.93914671	      4.05127417	     25.11826397	      0.43839641	      0.39701041	      5.76607735	     -7.49999986	    -13.51379615	      3.08595727	      3.05754258	     62.17796660	      0.19800342	     59.48312141	    126.33251467	    100.57776039	     81.25897601	     17.12534994	     61.27753326	    129.46490542	     95.00075324
      2.86666670	     -4.75380935	      2.21788893	    -19.75467833	      0.87174503	      0.86401679	     -0.31283955	     20.31191662	      9.98572729	      4.10179215	     33.82605847	      0.59037609	     16.65787061	    -12.51142467	     -7.49999986	     58.59177339	     -3.04605417	      4.25171187	     25.07139132	      0.43757833	      0.50959945	      6.06918279	     -7.49999986	    -13.48595494	      3.76852084	      2.68881470	     61.82363478	      0.25250196	     59.41929743	    125.39241989	    101.07663708	     81.33632553	     17.04144054	     63.03520912	    132.28262818	     95.16447200
      2.88333330	     -5.07979925	      1.88945622	    -19.83698134	      0.87158436	      0.86176225	     -0.31331775	     21.83505249	     10.55707234	      3.85348722	     36.08201692	      0.62975000	     17.56496654	    -12.92054622	     -7.49999987	     58.73969726	     -3.27385840	      4.55725598	     25.04494368	      0.43711673	      0.55875581	      6.26847352	     -7.49999987	    -14.05446248	      4.34979563	      2.86998964	     61.40787070	      0.69460590	     59.42053819	    124.79436276	    100.05147751	     80.46027349	     17.34348943	     64.51274690	    133.04721017	     93.83762128
